<svg width="50" height="50" viewBox="0 0 50 50" fill="none" xmlns="http://www.w3.org/2000/svg">
<path d="M20 13.75C16.5538 13.75 13.75 16.5538 13.75 20V30C13.75 33.4463 16.5538 36.25 20 36.25H30C33.4463 36.25 36.25 33.4463 36.25 30V20C36.25 16.5538 33.4463 13.75 30 13.75H20ZM20 16.25H30C32.0675 16.25 33.75 17.9325 33.75 20V30C33.75 32.0675 32.0675 33.75 30 33.75H20C17.9325 33.75 16.25 32.0675 16.25 30V20C16.25 17.9325 17.9325 16.25 20 16.25ZM31.25 17.5C30.9185 17.5 30.6005 17.6317 30.3661 17.8661C30.1317 18.1005 30 18.4185 30 18.75C30 19.0815 30.1317 19.3995 30.3661 19.6339C30.6005 19.8683 30.9185 20 31.25 20C31.5815 20 31.8995 19.8683 32.1339 19.6339C32.3683 19.3995 32.5 19.0815 32.5 18.75C32.5 18.4185 32.3683 18.1005 32.1339 17.8661C31.8995 17.6317 31.5815 17.5 31.25 17.5ZM25 18.75C21.5538 18.75 18.75 21.5538 18.75 25C18.75 28.4462 21.5538 31.25 25 31.25C28.4462 31.25 31.25 28.4462 31.25 25C31.25 21.5538 28.4462 18.75 25 18.75ZM25 21.25C27.0675 21.25 28.75 22.9325 28.75 25C28.75 27.0675 27.0675 28.75 25 28.75C22.9325 28.75 21.25 27.0675 21.25 25C21.25 22.9325 22.9325 21.25 25 21.25Z" fill="white"/>
<rect x="0.5" y="0.5" width="49" height="49" rx="24.5" stroke="white"/>
</svg>
