<svg width="19" height="21" viewBox="0 0 19 21" fill="none" xmlns="http://www.w3.org/2000/svg">
<path d="M3.82111 9.08833C5.34111 12.39 7.79 15.085 10.7772 16.7767L13.0994 14.21C13.3844 13.895 13.8067 13.79 14.1761 13.93C15.3583 14.3617 16.6356 14.595 17.9444 14.595C18.525 14.595 19 15.12 19 15.7617V19.8333C19 20.475 18.525 21 17.9444 21C8.03278 21 0 12.1217 0 1.16667C0 0.525 0.475 0 1.05556 0H4.75C5.33056 0 5.80556 0.525 5.80556 1.16667C5.80556 2.625 6.01667 4.025 6.40722 5.33167C6.52333 5.74 6.43889 6.195 6.14333 6.52167L3.82111 9.08833Z" fill="white"/>
</svg>
