<svg width="50" height="50" viewBox="0 0 50 50" fill="none" xmlns="http://www.w3.org/2000/svg">
<rect x="0.5" y="0.5" width="49" height="49" rx="24.5" stroke="white"/>
<path d="M37 15C36.064 15.5787 34.186 16.3674 33.082 16.5949C33.0496 16.6036 33.0232 16.6149 32.992 16.6236C32.0164 15.6212 30.6796 15 29.2 15C26.218 15 23.8 17.5186 23.8 20.6246C23.8 20.7884 23.7868 21.0896 23.8 21.2496C19.7764 21.2496 16.714 19.0547 14.518 16.2499C14.2792 16.8749 14.1748 17.8623 14.1748 18.7898C14.1748 20.5409 15.4888 22.2608 17.5348 23.327C17.158 23.4282 16.7428 23.5007 16.3108 23.5007C15.6136 23.5007 14.8756 23.3095 14.2 22.7295C14.2 22.7508 14.2 22.7708 14.2 22.7933C14.2 25.2406 16.6936 26.9068 18.9112 27.3705C18.4612 27.6467 17.554 27.6742 17.1112 27.6742C16.7992 27.6742 15.6952 27.5255 15.4 27.468C16.0168 29.4741 18.2416 30.6015 20.362 30.6415C18.7036 31.9964 17.5528 32.4989 14.1568 32.4989H13C15.1456 33.9313 17.878 35 20.6164 35C29.5324 35 34.6 27.9217 34.6 21.2496C34.6 21.1421 34.5976 20.9171 34.594 20.6909C34.594 20.6684 34.6 20.6471 34.6 20.6246C34.6 20.5909 34.5904 20.5584 34.5904 20.5247C34.5868 20.3547 34.5832 20.1959 34.5796 20.1134C35.5276 19.401 36.3496 18.5123 37 17.4998C36.13 17.9023 35.1964 18.1723 34.216 18.2948C35.2168 17.6698 36.6388 16.1799 37 15ZM32.2 21.2496C32.2 26.3493 28.6516 31.7477 22.0408 32.4277C22.936 31.7665 23.8 30.8278 23.8 30.8278C23.8 30.8278 20.2 27.5005 19.93 23.1532C21.172 23.5482 22.4656 23.7495 23.8 23.7495H26.2V20.6246C26.2024 18.8998 27.544 17.5011 29.2 17.5011C30.8572 17.5011 32.2 18.8998 32.2 20.6259C32.2 20.6259 32.2 21.1509 32.2 21.2496Z" fill="white"/>
</svg>
