<svg width="1600" height="194" viewBox="0 0 1600 194" fill="none" xmlns="http://www.w3.org/2000/svg">
<path fill-rule="evenodd" clip-rule="evenodd" d="M1600 137.524L1533.33 120.333C1466.67 103.143 1333.33 68.7618 1200 51.5713C1066.67 34.3809 933.333 34.3809 800 68.7618C666.667 103.143 533.333 171.905 400 189.095C266.667 206.285 133.333 171.905 66.6666 154.714L0 137.524V-4.57764e-05H66.6666C133.333 -4.57764e-05 266.667 -4.57764e-05 400 -4.57764e-05C533.333 -4.57764e-05 666.667 -4.57764e-05 800 -4.57764e-05C933.333 -4.57764e-05 1066.67 -4.57764e-05 1200 -4.57764e-05C1333.33 -4.57764e-05 1466.67 -4.57764e-05 1533.33 -4.57764e-05H1600V137.524Z" fill="white"/>
</svg>
